%TF.GenerationSoftware,KiCad,Pcbnew,(6.0.0)*%
%TF.CreationDate,2022-04-27T19:52:18+01:00*%
%TF.ProjectId,flora,666c6f72-612e-46b6-9963-61645f706362,A*%
%TF.SameCoordinates,Original*%
%TF.FileFunction,Copper,L4,Bot*%
%TF.FilePolarity,Positive*%
%FSLAX46Y46*%
G04 Gerber Fmt 4.6, Leading zero omitted, Abs format (unit mm)*
G04 Created by KiCad (PCBNEW (6.0.0)) date 2022-04-27 19:52:18*
%MOMM*%
%LPD*%
G01*
G04 APERTURE LIST*
%TA.AperFunction,EtchedComponent*%
%ADD10C,1.000000*%
%TD*%
%TA.AperFunction,ComponentPad*%
%ADD11C,1.950000*%
%TD*%
%TA.AperFunction,ComponentPad*%
%ADD12C,1.500000*%
%TD*%
%TA.AperFunction,ComponentPad*%
%ADD13R,1.425000X1.425000*%
%TD*%
%TA.AperFunction,ComponentPad*%
%ADD14C,1.425000*%
%TD*%
%TA.AperFunction,ComponentPad*%
%ADD15R,1.000000X1.000000*%
%TD*%
%TA.AperFunction,ComponentPad*%
%ADD16O,1.000000X1.000000*%
%TD*%
%TA.AperFunction,ComponentPad*%
%ADD17C,1.000000*%
%TD*%
%TA.AperFunction,SMDPad,CuDef*%
%ADD18R,3.600000X3.400000*%
%TD*%
%TA.AperFunction,SMDPad,CuDef*%
%ADD19R,2.540000X1.524000*%
%TD*%
%TA.AperFunction,ViaPad*%
%ADD20C,0.500000*%
%TD*%
%TA.AperFunction,ViaPad*%
%ADD21C,0.800000*%
%TD*%
%TA.AperFunction,ViaPad*%
%ADD22C,0.600000*%
%TD*%
%TA.AperFunction,Conductor*%
%ADD23C,0.150000*%
%TD*%
%TA.AperFunction,Conductor*%
%ADD24C,0.250000*%
%TD*%
%TA.AperFunction,Conductor*%
%ADD25C,0.200000*%
%TD*%
G04 APERTURE END LIST*
D10*
%TO.C,AE1*%
X213250000Y-108250000D02*
X213250000Y-111250000D01*
X197250000Y-108250000D02*
X197250000Y-111250000D01*
X209250000Y-108250000D02*
X209250000Y-111250000D01*
X197250000Y-111250000D02*
X198250000Y-112250000D01*
X204250000Y-107250000D02*
X205250000Y-108250000D01*
X207250000Y-108250000D02*
X207250000Y-111250000D01*
X206250000Y-107250000D02*
X207250000Y-108250000D01*
X207250000Y-111250000D02*
X208250000Y-112250000D01*
X212250000Y-107250000D02*
X213250000Y-108250000D01*
X200250000Y-107250000D02*
X201250000Y-108250000D01*
X198250000Y-107250000D02*
X199250000Y-108250000D01*
X203250000Y-108250000D02*
X203250000Y-111250000D01*
X201250000Y-108250000D02*
X201250000Y-111250000D01*
X199250000Y-111250000D02*
X200250000Y-112250000D01*
X199250000Y-108250000D02*
X199250000Y-111250000D01*
X210250000Y-107250000D02*
X211250000Y-108250000D01*
X202250000Y-107250000D02*
X203250000Y-108250000D01*
X208250000Y-107250000D02*
X209250000Y-108250000D01*
X209250000Y-111250000D02*
X210250000Y-112250000D01*
X203250000Y-111250000D02*
X204250000Y-112250000D01*
X196250000Y-107250000D02*
X197250000Y-108250000D01*
X211250000Y-108250000D02*
X211250000Y-111250000D01*
X211250000Y-111250000D02*
X212250000Y-112250000D01*
X201250000Y-111250000D02*
X202250000Y-112250000D01*
X205250000Y-108250000D02*
X205250000Y-111250000D01*
X213250000Y-111250000D02*
X214250000Y-112250000D01*
X205250000Y-111250000D02*
X206250000Y-112250000D01*
%TD*%
D11*
%TO.P,J4,MH1,MH1*%
%TO.N,unconnected-(J4-PadMH1)*%
X177025000Y-148550000D03*
%TO.P,J4,MH2,MH2*%
%TO.N,unconnected-(J4-PadMH2)*%
X177025000Y-155150000D03*
%TD*%
D12*
%TO.P,J3,1,1*%
%TO.N,GPIO13*%
X189000000Y-109950000D03*
%TO.P,J3,2,2*%
%TO.N,GND*%
X185500000Y-109950000D03*
%TD*%
D13*
%TO.P,J5,1,1*%
%TO.N,GND*%
X220150000Y-162450000D03*
D14*
%TO.P,J5,2,2*%
%TO.N,+VSW*%
X218150000Y-162450000D03*
%TD*%
D15*
%TO.P,J8,1,Pin_1*%
%TO.N,GPIO14*%
X218550000Y-130150000D03*
D16*
%TO.P,J8,2,Pin_2*%
%TO.N,GPIO12*%
X218550000Y-128880000D03*
%TO.P,J8,3,Pin_3*%
%TO.N,GPIO13*%
X218550000Y-127610000D03*
%TO.P,J8,4,Pin_4*%
%TO.N,GPIO15*%
X218550000Y-126340000D03*
%TD*%
D15*
%TO.P,J6,1,Pin_1*%
%TO.N,/Microcontroller/DTR*%
X176350000Y-143350000D03*
D16*
%TO.P,J6,2,Pin_2*%
%TO.N,/Microcontroller/U0TXD*%
X176350000Y-142080000D03*
%TO.P,J6,3,Pin_3*%
%TO.N,/Microcontroller/U0RXD*%
X176350000Y-140810000D03*
%TO.P,J6,4,Pin_4*%
%TO.N,/Microcontroller/RTS*%
X176350000Y-139540000D03*
%TD*%
D17*
%TO.P,AE1,*%
%TO.N,*%
X208250000Y-112250000D03*
X214250000Y-107250000D03*
X208250000Y-107250000D03*
X204250000Y-112250000D03*
X196250000Y-107250000D03*
X204250000Y-107250000D03*
X206250000Y-107250000D03*
X198250000Y-107250000D03*
X200250000Y-107250000D03*
X210250000Y-112250000D03*
X202250000Y-112250000D03*
X206250000Y-112250000D03*
X202250000Y-107250000D03*
X212250000Y-107250000D03*
X210250000Y-107250000D03*
X200250000Y-112250000D03*
X198250000Y-112250000D03*
X212250000Y-112250000D03*
X214250000Y-112250000D03*
%TD*%
D12*
%TO.P,J1,1,1*%
%TO.N,GPIO14*%
X178150000Y-118700000D03*
%TO.P,J1,2,2*%
%TO.N,GND*%
X178150000Y-122200000D03*
%TD*%
%TO.P,J2,1,1*%
%TO.N,GPIO12*%
X178150000Y-109600000D03*
%TO.P,J2,2,2*%
%TO.N,GND*%
X178150000Y-113100000D03*
%TD*%
D18*
%TO.P,BT1,1,+*%
%TO.N,VDD*%
X204198921Y-121350000D03*
%TO.P,BT1,2,-*%
%TO.N,Net-(BT1-Pad2)*%
X204198921Y-152450000D03*
%TD*%
D19*
%TO.P,TP3,1,VBUS*%
%TO.N,VBUS*%
X180100000Y-147350000D03*
%TO.P,TP3,2,D-*%
%TO.N,D-*%
X180100000Y-150350000D03*
%TO.P,TP3,3,D+*%
%TO.N,D+*%
X180100000Y-153350000D03*
%TO.P,TP3,4,GND*%
%TO.N,GND*%
X180100000Y-156350000D03*
%TD*%
D20*
%TO.N,EN*%
X198735523Y-152335523D03*
X183152684Y-139147316D03*
X176050000Y-158550000D03*
X189600000Y-137220000D03*
%TO.N,Net-(C10-Pad2)*%
X228350000Y-118050000D03*
X224050000Y-108950000D03*
%TO.N,GPIO0*%
X192620000Y-140180000D03*
X189350000Y-153650000D03*
D21*
%TO.N,VBUS*%
X184950000Y-145950000D03*
X182200000Y-150550000D03*
D20*
%TO.N,GPIO25*%
X214850000Y-145150000D03*
X192450000Y-130950000D03*
%TO.N,GPIO26*%
X190350000Y-131450000D03*
X214150000Y-143850000D03*
%TO.N,GPIO27*%
X192550000Y-135050000D03*
X213850000Y-142450000D03*
%TO.N,GPIO14*%
X199350000Y-127050000D03*
X214450000Y-139150000D03*
X201650000Y-142149006D03*
X188550000Y-125350000D03*
%TO.N,GPIO12*%
X189106944Y-125015834D03*
X201650000Y-141499503D03*
%TO.N,GPIO13*%
X211850000Y-131150000D03*
X215650000Y-129950000D03*
X189850000Y-124950000D03*
X201650000Y-140850000D03*
%TO.N,GPIO15*%
X215650000Y-129250000D03*
X206750000Y-130550000D03*
%TO.N,GPIO16*%
X185650000Y-121450000D03*
X188750000Y-140250000D03*
%TO.N,GPIO17*%
X188050000Y-140250000D03*
X184550000Y-121250000D03*
%TO.N,GPIO5*%
X198350000Y-146450000D03*
X208550000Y-135850000D03*
%TO.N,GPIO18*%
X208939702Y-136369602D03*
X198350000Y-147150000D03*
X212050000Y-129050000D03*
X210350000Y-129050000D03*
%TO.N,GPIO21*%
X193724500Y-150350000D03*
X218850000Y-155950000D03*
%TO.N,/Microcontroller/U0RXD*%
X178150000Y-133050000D03*
X191650000Y-151650000D03*
%TO.N,/Microcontroller/U0TXD*%
X191650000Y-152850000D03*
X176150000Y-133050000D03*
%TO.N,GPIO22*%
X199850000Y-157099011D03*
X224400000Y-156950000D03*
%TO.N,D-*%
X178471551Y-151572048D03*
%TO.N,D+*%
X178500000Y-152250000D03*
D21*
%TO.N,VDD*%
X208350000Y-119750000D03*
X229750000Y-152824500D03*
X223050000Y-152150000D03*
X229250000Y-150150000D03*
X185650000Y-153850000D03*
X225150000Y-145250000D03*
D22*
%TO.N,+3V3*%
X231950000Y-136250000D03*
X183450000Y-117050000D03*
X178650000Y-138089500D03*
X193700000Y-125100000D03*
X188050000Y-134990000D03*
X186550000Y-121450000D03*
X183550000Y-121250000D03*
X217750000Y-116650000D03*
X184050000Y-132019502D03*
X217750000Y-155350000D03*
X178550000Y-144850000D03*
D20*
%TO.N,Net-(BT1-Pad2)*%
X214350000Y-153250000D03*
%TO.N,Net-(JP5-Pad1)*%
X215550000Y-131050000D03*
X220961323Y-153749500D03*
%TO.N,Net-(D2-Pad1)*%
X231350000Y-159850000D03*
X228450000Y-153550000D03*
%TO.N,Net-(JP4-Pad1)*%
X220450000Y-154150000D03*
X215550000Y-133050000D03*
%TO.N,Net-(JP7-Pad1)*%
X223550000Y-137850000D03*
%TO.N,/Microcontroller/RTS*%
X182385523Y-139114477D03*
X177750000Y-138750000D03*
%TO.N,/Microcontroller/DTR*%
X182678184Y-140050000D03*
D21*
%TO.N,GND*%
X193000000Y-124200000D03*
X183450000Y-114650000D03*
X230250000Y-132950000D03*
X226150000Y-110450000D03*
X232250000Y-144550000D03*
X187550000Y-162950000D03*
X230050000Y-138062500D03*
X180450000Y-133150000D03*
X180800000Y-155050000D03*
X207950000Y-150950000D03*
X192450000Y-155450000D03*
X219350000Y-107450000D03*
X217650000Y-154150000D03*
X208050000Y-149150000D03*
X201550000Y-150950000D03*
X177850000Y-139750000D03*
X231650000Y-156450000D03*
X217750000Y-158350000D03*
X213450000Y-136950000D03*
X206698423Y-152550000D03*
X219650000Y-112950000D03*
X208050000Y-147350000D03*
X204850000Y-146050000D03*
X188050000Y-135950000D03*
X201550000Y-149250000D03*
X230440539Y-121071478D03*
X176950000Y-161450000D03*
X211550000Y-121050000D03*
X224950000Y-147050000D03*
X206550000Y-146050000D03*
X229250000Y-164150000D03*
D20*
X186550000Y-145950000D03*
%TO.N,GPIO19*%
X209550000Y-136850000D03*
X198350000Y-147850000D03*
%TO.N,GPIO23*%
X197050000Y-155400011D03*
X204514477Y-136914477D03*
X209050000Y-128450000D03*
X208075500Y-129450000D03*
%TD*%
D23*
%TO.N,EN*%
X175350000Y-146950000D02*
X176850000Y-145450000D01*
X190331061Y-137220000D02*
X189600000Y-137220000D01*
X175350000Y-157850000D02*
X175350000Y-146950000D01*
X193549520Y-140438459D02*
X190331061Y-137220000D01*
X183152684Y-143647316D02*
X183152684Y-139147316D01*
X193549520Y-147149520D02*
X193549520Y-140438459D01*
X176050000Y-158550000D02*
X175350000Y-157850000D01*
X198735523Y-152335523D02*
X193549520Y-147149520D01*
X181350000Y-145450000D02*
X183152684Y-143647316D01*
X176850000Y-145450000D02*
X181350000Y-145450000D01*
D24*
%TO.N,Net-(C10-Pad2)*%
X224050000Y-113750000D02*
X224050000Y-108950000D01*
X228350000Y-118050000D02*
X224050000Y-113750000D01*
D23*
%TO.N,GPIO0*%
X193250000Y-151921061D02*
X193250000Y-140810000D01*
X189350000Y-153650000D02*
X191521061Y-153650000D01*
X191521061Y-153650000D02*
X193250000Y-151921061D01*
X193250000Y-140810000D02*
X192620000Y-140180000D01*
D24*
%TO.N,VBUS*%
X181700000Y-147350000D02*
X180100000Y-147350000D01*
X184950000Y-147800000D02*
X182200000Y-150550000D01*
X184950000Y-145950000D02*
X184950000Y-147800000D01*
X182200000Y-150550000D02*
X182200000Y-147850000D01*
X182200000Y-147850000D02*
X181700000Y-147350000D01*
D23*
%TO.N,GPIO25*%
X205368232Y-131050000D02*
X192550000Y-131050000D01*
X192550000Y-131050000D02*
X192450000Y-130950000D01*
X214850000Y-145150000D02*
X214850000Y-140531768D01*
X214850000Y-140531768D02*
X205368232Y-131050000D01*
%TO.N,GPIO26*%
X191902677Y-133002677D02*
X206897323Y-133002677D01*
X206897323Y-133002677D02*
X214324511Y-140429864D01*
X214324511Y-143675489D02*
X214150000Y-143850000D01*
X190350000Y-131450000D02*
X191902677Y-133002677D01*
X214324511Y-140429864D02*
X214324511Y-143675489D01*
%TO.N,GPIO27*%
X213850000Y-142450000D02*
X213850000Y-140378939D01*
X213850000Y-140378939D02*
X208521061Y-135050000D01*
X192550000Y-135050000D02*
X208521061Y-135050000D01*
%TO.N,GPIO14*%
X188950000Y-133297170D02*
X188950000Y-125650000D01*
X188650000Y-125350000D02*
X188550000Y-125350000D01*
X214450000Y-139150000D02*
X202350000Y-127050000D01*
X201650000Y-142149006D02*
X197801836Y-142149006D01*
X197801836Y-142149006D02*
X188950000Y-133297170D01*
X202350000Y-127050000D02*
X199350000Y-127050000D01*
X188950000Y-125650000D02*
X188650000Y-125350000D01*
%TO.N,GPIO12*%
X189250000Y-133173585D02*
X189250000Y-125158890D01*
X197575918Y-141499503D02*
X189250000Y-133173585D01*
X201650000Y-141499503D02*
X197575918Y-141499503D01*
X189250000Y-125158890D02*
X189106944Y-125015834D01*
%TO.N,GPIO13*%
X189850000Y-125250000D02*
X189850000Y-124950000D01*
X201650000Y-140850000D02*
X197350000Y-140850000D01*
X213050000Y-129950000D02*
X215650000Y-129950000D01*
X211850000Y-131150000D02*
X213050000Y-129950000D01*
X189550000Y-133050000D02*
X189550000Y-125550000D01*
X197350000Y-140850000D02*
X189550000Y-133050000D01*
X189550000Y-125550000D02*
X189850000Y-125250000D01*
%TO.N,GPIO15*%
X215250000Y-129650000D02*
X211350000Y-129650000D01*
X215650000Y-129250000D02*
X215250000Y-129650000D01*
X210450000Y-130550000D02*
X206750000Y-130550000D01*
X211350000Y-129650000D02*
X210450000Y-130550000D01*
%TO.N,GPIO16*%
X187375489Y-138875489D02*
X187375489Y-123175489D01*
X188750000Y-140250000D02*
X187375489Y-138875489D01*
X187375489Y-123175489D02*
X185650000Y-121450000D01*
%TO.N,GPIO17*%
X187075969Y-123775969D02*
X184550000Y-121250000D01*
X187050000Y-139250000D02*
X188050000Y-140250000D01*
X187075969Y-139275969D02*
X187075969Y-123775969D01*
%TO.N,GPIO5*%
X198350000Y-146450000D02*
X201350000Y-146450000D01*
X206250000Y-135850000D02*
X208550000Y-135850000D01*
X201350000Y-146450000D02*
X202549520Y-145250480D01*
X202549520Y-145250480D02*
X202549520Y-139550481D01*
X202549520Y-139550481D02*
X206250000Y-135850000D01*
%TO.N,GPIO18*%
X206153985Y-136369602D02*
X208939702Y-136369602D01*
X210350000Y-129050000D02*
X212050000Y-129050000D01*
X198350000Y-147150000D02*
X201150000Y-147150000D01*
X202850000Y-139673587D02*
X206153985Y-136369602D01*
X202850000Y-145450000D02*
X202850000Y-139673587D01*
X201150000Y-147150000D02*
X202850000Y-145450000D01*
%TO.N,GPIO21*%
X217750000Y-152850000D02*
X218850000Y-153950000D01*
X217050000Y-152850000D02*
X217750000Y-152850000D01*
X193724500Y-150350000D02*
X193724500Y-154324500D01*
X214025489Y-155874511D02*
X217050000Y-152850000D01*
X218850000Y-153950000D02*
X218850000Y-155950000D01*
X193724500Y-154324500D02*
X195274511Y-155874511D01*
X195274511Y-155874511D02*
X214025489Y-155874511D01*
%TO.N,/Microcontroller/U0RXD*%
X187650000Y-142550000D02*
X187650000Y-150750000D01*
X176078939Y-132450000D02*
X177550000Y-132450000D01*
X191050000Y-152250000D02*
X191650000Y-151650000D01*
X189150000Y-152250000D02*
X191050000Y-152250000D01*
X178150000Y-133050000D02*
X187650000Y-142550000D01*
X187650000Y-150750000D02*
X189150000Y-152250000D01*
X177550000Y-132450000D02*
X178150000Y-133050000D01*
X176350000Y-140810000D02*
X175625489Y-140085489D01*
X175625489Y-140085489D02*
X175625489Y-132903450D01*
X175625489Y-132903450D02*
X176078939Y-132450000D01*
%TO.N,/Microcontroller/U0TXD*%
X176711793Y-133611793D02*
X178288207Y-133611793D01*
X176350000Y-142080000D02*
X177074511Y-141355489D01*
X176150000Y-133050000D02*
X177074511Y-133974511D01*
X187350480Y-142674066D02*
X187350480Y-150874066D01*
X178288207Y-133611793D02*
X187350480Y-142674066D01*
X177074511Y-141355489D02*
X177074511Y-133974511D01*
X187350480Y-150874066D02*
X189326414Y-152850000D01*
X189326414Y-152850000D02*
X191650000Y-152850000D01*
%TO.N,GPIO22*%
X199900989Y-157150000D02*
X224200000Y-157150000D01*
X224200000Y-157150000D02*
X224400000Y-156950000D01*
X199850000Y-157099011D02*
X199900989Y-157150000D01*
D25*
%TO.N,D-*%
X178471551Y-151572048D02*
X179877952Y-151572048D01*
X180100000Y-151350000D02*
X180100000Y-150350000D01*
X179877952Y-151572048D02*
X180100000Y-151350000D01*
%TO.N,D+*%
X180000000Y-152250000D02*
X180100000Y-152350000D01*
X178500000Y-152250000D02*
X180000000Y-152250000D01*
X180100000Y-152350000D02*
X180100000Y-153350000D01*
D24*
%TO.N,VDD*%
X185650000Y-153850000D02*
X188324511Y-156524511D01*
X229250000Y-152324500D02*
X229750000Y-152824500D01*
X222375489Y-156524511D02*
X188324511Y-156524511D01*
X216424031Y-136524031D02*
X216424031Y-127824031D01*
X225150000Y-145250000D02*
X216424031Y-136524031D01*
X207400000Y-120700000D02*
X208350000Y-119750000D01*
X223050000Y-152150000D02*
X225050000Y-150150000D01*
X229250000Y-150150000D02*
X229250000Y-152324500D01*
X226075500Y-152824500D02*
X222375489Y-156524511D01*
X204298921Y-120700000D02*
X207400000Y-120700000D01*
X229250000Y-149350000D02*
X229250000Y-150150000D01*
X225150000Y-145250000D02*
X229250000Y-149350000D01*
X216424031Y-127824031D02*
X208350000Y-119750000D01*
X225050000Y-150150000D02*
X229250000Y-150150000D01*
X229750000Y-152824500D02*
X226075500Y-152824500D01*
D25*
%TO.N,+3V3*%
X217750000Y-117750000D02*
X217750000Y-116650000D01*
X221850000Y-132850000D02*
X228550000Y-132850000D01*
X221850000Y-132850000D02*
X220550000Y-131550000D01*
X220550000Y-131550000D02*
X220550000Y-120550000D01*
X231950000Y-136250000D02*
X228550000Y-132850000D01*
X217750000Y-117750000D02*
X220550000Y-120550000D01*
%TO.N,Net-(BT1-Pad2)*%
X214350000Y-153250000D02*
X212900000Y-151800000D01*
X212900000Y-151800000D02*
X204298921Y-151800000D01*
D23*
%TO.N,Net-(JP5-Pad1)*%
X216024511Y-144000925D02*
X220961323Y-148937738D01*
X216024511Y-131524511D02*
X215550000Y-131050000D01*
X220961323Y-153749500D02*
X220961323Y-148937738D01*
X216024511Y-144000925D02*
X216024511Y-131524511D01*
%TO.N,Net-(D2-Pad1)*%
X232324511Y-156729393D02*
X232324511Y-154224511D01*
X232324511Y-154224511D02*
X231650000Y-153550000D01*
X231350000Y-159850000D02*
X231350000Y-157703904D01*
X231650000Y-153550000D02*
X228450000Y-153550000D01*
X231350000Y-157703904D02*
X232324511Y-156729393D01*
%TO.N,Net-(JP4-Pad1)*%
X215550000Y-143950000D02*
X215550000Y-133050000D01*
X215550000Y-143950000D02*
X220450000Y-148850000D01*
X220450000Y-154150000D02*
X220450000Y-148850000D01*
%TO.N,/Microcontroller/RTS*%
X177750000Y-138750000D02*
X182021046Y-138750000D01*
X182021046Y-138750000D02*
X182385523Y-139114477D01*
%TO.N,/Microcontroller/DTR*%
X182650000Y-140050000D02*
X182678184Y-140050000D01*
X176350000Y-143350000D02*
X180350000Y-139350000D01*
X181950000Y-139350000D02*
X182650000Y-140050000D01*
X180350000Y-139350000D02*
X181950000Y-139350000D01*
D24*
%TO.N,GND*%
X180800000Y-155650000D02*
X180800000Y-155050000D01*
X180100000Y-156350000D02*
X180800000Y-155650000D01*
D23*
%TO.N,GPIO19*%
X203150000Y-139797173D02*
X206097173Y-136850000D01*
X198350000Y-147850000D02*
X200873585Y-147850000D01*
X203150000Y-145573585D02*
X203150000Y-139797173D01*
X200873585Y-147850000D02*
X203150000Y-145573585D01*
X206097173Y-136850000D02*
X209550000Y-136850000D01*
%TO.N,GPIO23*%
X198350000Y-145750000D02*
X201550000Y-145750000D01*
X202250000Y-139178954D02*
X204514477Y-136914477D01*
X197650000Y-146450000D02*
X198350000Y-145750000D01*
X197650000Y-148750000D02*
X197650000Y-146450000D01*
X199250000Y-150350000D02*
X197650000Y-148750000D01*
X201550000Y-145750000D02*
X202250000Y-145050000D01*
X209050000Y-128475500D02*
X208075500Y-129450000D01*
X202250000Y-145050000D02*
X202250000Y-139178954D01*
X197050000Y-155400011D02*
X197999989Y-155400011D01*
X199250000Y-154150000D02*
X199250000Y-150350000D01*
X197999989Y-155400011D02*
X199250000Y-154150000D01*
X209050000Y-128450000D02*
X209050000Y-128475500D01*
%TD*%
%TA.AperFunction,Conductor*%
%TO.N,Net-(JP7-Pad1)*%
G36*
X220364592Y-131870002D02*
G01*
X220385566Y-131886905D01*
X221563084Y-133064423D01*
X221575592Y-133079909D01*
X221578526Y-133083134D01*
X221584175Y-133091882D01*
X221592352Y-133098328D01*
X221608430Y-133111003D01*
X221612431Y-133114559D01*
X221612516Y-133114459D01*
X221616473Y-133117812D01*
X221620156Y-133121495D01*
X221624391Y-133124521D01*
X221624393Y-133124523D01*
X221634669Y-133131866D01*
X221639417Y-133135431D01*
X221668677Y-133158498D01*
X221668679Y-133158499D01*
X221676857Y-133164946D01*
X221684927Y-133167780D01*
X221691886Y-133172753D01*
X221701864Y-133175737D01*
X221701866Y-133175738D01*
X221737576Y-133186417D01*
X221743220Y-133188251D01*
X221788208Y-133204050D01*
X221793404Y-133204500D01*
X221796111Y-133204500D01*
X221798365Y-133204597D01*
X221798841Y-133204740D01*
X221798839Y-133204786D01*
X221799038Y-133204799D01*
X221804955Y-133206568D01*
X221855124Y-133204597D01*
X221860070Y-133204500D01*
X228350971Y-133204500D01*
X228419092Y-133224502D01*
X228440066Y-133241405D01*
X229213095Y-134014434D01*
X229247121Y-134076746D01*
X229250000Y-134103529D01*
X229250000Y-142445499D01*
X229249679Y-142454487D01*
X229230286Y-142725645D01*
X229227728Y-142743433D01*
X229170903Y-143004654D01*
X229165840Y-143021900D01*
X229072411Y-143272393D01*
X229064945Y-143288740D01*
X228936824Y-143523375D01*
X228927105Y-143538498D01*
X228766897Y-143752510D01*
X228755124Y-143766096D01*
X228566096Y-143955124D01*
X228552510Y-143966897D01*
X228338498Y-144127105D01*
X228323375Y-144136824D01*
X228088740Y-144264945D01*
X228072393Y-144272411D01*
X227821900Y-144365840D01*
X227804658Y-144370902D01*
X227543433Y-144427728D01*
X227525650Y-144430285D01*
X227303871Y-144446147D01*
X227254487Y-144449679D01*
X227245499Y-144450000D01*
X224938884Y-144450000D01*
X224870763Y-144429998D01*
X224849789Y-144413095D01*
X218086905Y-137650211D01*
X218052879Y-137587899D01*
X218050000Y-137561116D01*
X218050000Y-133854501D01*
X218050321Y-133845513D01*
X218069714Y-133574355D01*
X218072272Y-133556567D01*
X218129098Y-133295342D01*
X218134161Y-133278097D01*
X218227589Y-133027607D01*
X218235055Y-133011260D01*
X218363176Y-132776625D01*
X218372895Y-132761502D01*
X218533103Y-132547490D01*
X218544876Y-132533904D01*
X218733904Y-132344876D01*
X218747490Y-132333103D01*
X218961502Y-132172895D01*
X218976625Y-132163176D01*
X219211260Y-132035055D01*
X219227607Y-132027589D01*
X219478100Y-131934160D01*
X219495342Y-131929098D01*
X219756567Y-131872272D01*
X219774350Y-131869715D01*
X219996129Y-131853853D01*
X220045513Y-131850321D01*
X220054501Y-131850000D01*
X220296471Y-131850000D01*
X220364592Y-131870002D01*
G37*
%TD.AperFunction*%
%TD*%
M02*
