%TF.GenerationSoftware,KiCad,Pcbnew,(6.0.0)*%
%TF.CreationDate,2022-04-27T19:52:18+01:00*%
%TF.ProjectId,flora,666c6f72-612e-46b6-9963-61645f706362,A*%
%TF.SameCoordinates,Original*%
%TF.FileFunction,Soldermask,Top*%
%TF.FilePolarity,Negative*%
%FSLAX46Y46*%
G04 Gerber Fmt 4.6, Leading zero omitted, Abs format (unit mm)*
G04 Created by KiCad (PCBNEW (6.0.0)) date 2022-04-27 19:52:18*
%MOMM*%
%LPD*%
G01*
G04 APERTURE LIST*
G04 Aperture macros list*
%AMRoundRect*
0 Rectangle with rounded corners*
0 $1 Rounding radius*
0 $2 $3 $4 $5 $6 $7 $8 $9 X,Y pos of 4 corners*
0 Add a 4 corners polygon primitive as box body*
4,1,4,$2,$3,$4,$5,$6,$7,$8,$9,$2,$3,0*
0 Add four circle primitives for the rounded corners*
1,1,$1+$1,$2,$3*
1,1,$1+$1,$4,$5*
1,1,$1+$1,$6,$7*
1,1,$1+$1,$8,$9*
0 Add four rect primitives between the rounded corners*
20,1,$1+$1,$2,$3,$4,$5,0*
20,1,$1+$1,$4,$5,$6,$7,0*
20,1,$1+$1,$6,$7,$8,$9,0*
20,1,$1+$1,$8,$9,$2,$3,0*%
%AMFreePoly0*
4,1,6,1.000000,0.000000,0.500000,-0.750000,-0.500000,-0.750000,-0.500000,0.750000,0.500000,0.750000,1.000000,0.000000,1.000000,0.000000,$1*%
%AMFreePoly1*
4,1,6,0.500000,-0.750000,-0.650000,-0.750000,-0.150000,0.000000,-0.650000,0.750000,0.500000,0.750000,0.500000,-0.750000,0.500000,-0.750000,$1*%
G04 Aperture macros list end*
%ADD10RoundRect,0.250000X0.250000X0.475000X-0.250000X0.475000X-0.250000X-0.475000X0.250000X-0.475000X0*%
%ADD11RoundRect,0.135000X-0.135000X-0.185000X0.135000X-0.185000X0.135000X0.185000X-0.135000X0.185000X0*%
%ADD12RoundRect,0.140000X-0.170000X0.140000X-0.170000X-0.140000X0.170000X-0.140000X0.170000X0.140000X0*%
%ADD13R,1.000000X1.000000*%
%ADD14RoundRect,0.250000X-0.475000X0.250000X-0.475000X-0.250000X0.475000X-0.250000X0.475000X0.250000X0*%
%ADD15R,0.750000X1.200000*%
%ADD16R,1.500000X1.000000*%
%ADD17R,1.350000X0.400000*%
%ADD18C,1.950000*%
%ADD19R,1.400000X1.600000*%
%ADD20R,1.600000X1.900000*%
%ADD21RoundRect,0.250000X-0.250000X-0.475000X0.250000X-0.475000X0.250000X0.475000X-0.250000X0.475000X0*%
%ADD22C,3.200000*%
%ADD23R,1.000000X1.500000*%
%ADD24RoundRect,0.140000X0.140000X0.170000X-0.140000X0.170000X-0.140000X-0.170000X0.140000X-0.170000X0*%
%ADD25R,1.500000X2.000000*%
%ADD26R,3.800000X2.000000*%
%ADD27RoundRect,0.250000X0.475000X-0.250000X0.475000X0.250000X-0.475000X0.250000X-0.475000X-0.250000X0*%
%ADD28RoundRect,0.135000X-0.185000X0.135000X-0.185000X-0.135000X0.185000X-0.135000X0.185000X0.135000X0*%
%ADD29RoundRect,0.218750X-0.256250X0.218750X-0.256250X-0.218750X0.256250X-0.218750X0.256250X0.218750X0*%
%ADD30RoundRect,0.135000X0.185000X-0.135000X0.185000X0.135000X-0.185000X0.135000X-0.185000X-0.135000X0*%
%ADD31R,0.450000X1.475000*%
%ADD32C,1.500000*%
%ADD33RoundRect,0.135000X0.135000X0.185000X-0.135000X0.185000X-0.135000X-0.185000X0.135000X-0.185000X0*%
%ADD34R,0.600000X1.200000*%
%ADD35R,0.850000X0.450000*%
%ADD36R,1.500000X2.400000*%
%ADD37RoundRect,0.140000X0.170000X-0.140000X0.170000X0.140000X-0.170000X0.140000X-0.170000X-0.140000X0*%
%ADD38R,1.200000X1.000000*%
%ADD39R,3.400000X1.900000*%
%ADD40R,1.425000X1.425000*%
%ADD41C,1.425000*%
%ADD42RoundRect,0.250000X0.450000X-0.350000X0.450000X0.350000X-0.450000X0.350000X-0.450000X-0.350000X0*%
%ADD43FreePoly0,180.000000*%
%ADD44FreePoly1,180.000000*%
%ADD45O,1.000000X1.000000*%
%ADD46RoundRect,0.250000X0.350000X0.450000X-0.350000X0.450000X-0.350000X-0.450000X0.350000X-0.450000X0*%
%ADD47R,0.650000X0.400000*%
%ADD48R,2.000000X0.900000*%
%ADD49R,0.900000X2.000000*%
%ADD50R,1.330000X1.330000*%
%ADD51FreePoly0,270.000000*%
%ADD52FreePoly1,270.000000*%
%ADD53R,2.350000X1.550000*%
%ADD54R,1.525000X0.700000*%
%ADD55R,0.700000X1.525000*%
%ADD56R,3.402000X2.513000*%
%ADD57RoundRect,0.218750X-0.218750X-0.256250X0.218750X-0.256250X0.218750X0.256250X-0.218750X0.256250X0*%
%ADD58R,1.000000X1.200000*%
%ADD59RoundRect,0.150000X-0.825000X-0.150000X0.825000X-0.150000X0.825000X0.150000X-0.825000X0.150000X0*%
%ADD60R,0.500000X0.375000*%
%ADD61R,0.650000X0.300000*%
%ADD62RoundRect,0.140000X-0.140000X-0.170000X0.140000X-0.170000X0.140000X0.170000X-0.140000X0.170000X0*%
%ADD63R,2.000000X1.500000*%
G04 APERTURE END LIST*
D10*
%TO.C,C21*%
X185650000Y-155450000D03*
X183750000Y-155450000D03*
%TD*%
D11*
%TO.C,R18*%
X223052500Y-147050000D03*
X224072500Y-147050000D03*
%TD*%
D12*
%TO.C,C17*%
X217750000Y-156470000D03*
X217750000Y-157430000D03*
%TD*%
D13*
%TO.C,TP7*%
X186450000Y-158550000D03*
%TD*%
D14*
%TO.C,C14*%
X224870000Y-118300000D03*
X224870000Y-120200000D03*
%TD*%
D13*
%TO.C,TP6*%
X177250000Y-158550000D03*
%TD*%
D15*
%TO.C,D4*%
X184700000Y-153550000D03*
X184700000Y-150150000D03*
%TD*%
D16*
%TO.C,JP8*%
X229300000Y-141012500D03*
X229300000Y-139712500D03*
%TD*%
D17*
%TO.C,J4*%
X179700000Y-150550000D03*
X179700000Y-151200000D03*
X179700000Y-151850000D03*
X179700000Y-152500000D03*
X179700000Y-153150000D03*
D18*
X177025000Y-148550000D03*
X177025000Y-155150000D03*
D19*
X179475000Y-148650000D03*
D20*
X177025000Y-150650000D03*
X177025000Y-153050000D03*
D19*
X179475000Y-155050000D03*
%TD*%
D21*
%TO.C,C6*%
X229750000Y-155050000D03*
X231650000Y-155050000D03*
%TD*%
D22*
%TO.C,H3*%
X218250000Y-149850000D03*
%TD*%
D23*
%TO.C,JP9*%
X224312500Y-150800000D03*
X223012500Y-150800000D03*
%TD*%
D12*
%TO.C,C7*%
X230370000Y-122090000D03*
X230370000Y-123050000D03*
%TD*%
D24*
%TO.C,C11*%
X191250000Y-153650000D03*
X190290000Y-153650000D03*
%TD*%
D25*
%TO.C,U2*%
X221250000Y-141150000D03*
X223550000Y-141150000D03*
D26*
X223550000Y-134850000D03*
D25*
X225850000Y-141150000D03*
%TD*%
D27*
%TO.C,C1*%
X195200000Y-126000000D03*
X195200000Y-124100000D03*
%TD*%
D11*
%TO.C,R20*%
X183540000Y-120350000D03*
X184560000Y-120350000D03*
%TD*%
D28*
%TO.C,R10*%
X231170000Y-119940000D03*
X231170000Y-120960000D03*
%TD*%
%TO.C,R13*%
X178650000Y-142850000D03*
X178650000Y-143870000D03*
%TD*%
D12*
%TO.C,C23*%
X178730000Y-138850000D03*
X178730000Y-139810000D03*
%TD*%
D29*
%TO.C,D5*%
X231550000Y-139475000D03*
X231550000Y-141050000D03*
%TD*%
D28*
%TO.C,R12*%
X231170000Y-117950000D03*
X231170000Y-118970000D03*
%TD*%
D22*
%TO.C,H1*%
X189980000Y-121880000D03*
%TD*%
D12*
%TO.C,C22*%
X187250000Y-135010000D03*
X187250000Y-135970000D03*
%TD*%
D30*
%TO.C,R6*%
X231370000Y-123070000D03*
X231370000Y-122050000D03*
%TD*%
D13*
%TO.C,TP1*%
X184050000Y-158050000D03*
%TD*%
D24*
%TO.C,C5*%
X231330000Y-124050000D03*
X230370000Y-124050000D03*
%TD*%
D30*
%TO.C,R4*%
X228450000Y-155560000D03*
X228450000Y-154540000D03*
%TD*%
D31*
%TO.C,IC4*%
X226475000Y-150788000D03*
X227125000Y-150788000D03*
X227775000Y-150788000D03*
X228425000Y-150788000D03*
X228425000Y-144912000D03*
X227775000Y-144912000D03*
X227125000Y-144912000D03*
X226475000Y-144912000D03*
%TD*%
D24*
%TO.C,C2*%
X193660000Y-126000000D03*
X192700000Y-126000000D03*
%TD*%
D22*
%TO.C,H2*%
X218250000Y-121850000D03*
%TD*%
D32*
%TO.C,J3*%
X189000000Y-109950000D03*
X185500000Y-109950000D03*
%TD*%
D27*
%TO.C,C15*%
X231850000Y-134850000D03*
X231850000Y-132950000D03*
%TD*%
D33*
%TO.C,R8*%
X230770000Y-150850000D03*
X229750000Y-150850000D03*
%TD*%
D34*
%TO.C,IC5*%
X232050000Y-146950000D03*
X231100000Y-146950000D03*
X230150000Y-146950000D03*
X230150000Y-149450000D03*
X231100000Y-149450000D03*
X232050000Y-149450000D03*
%TD*%
D13*
%TO.C,TP4*%
X191100000Y-139820000D03*
%TD*%
D35*
%TO.C,IC2*%
X187545000Y-117420000D03*
X187545000Y-116420000D03*
X187545000Y-115420000D03*
X184645000Y-115420000D03*
X184645000Y-116420000D03*
X184645000Y-117420000D03*
D36*
X186095000Y-116420000D03*
%TD*%
D27*
%TO.C,C20*%
X222770000Y-116700000D03*
X222770000Y-114800000D03*
%TD*%
D37*
%TO.C,C25*%
X183450000Y-116330000D03*
X183450000Y-115370000D03*
%TD*%
D38*
%TO.C,S1*%
X185300000Y-162450000D03*
X177900000Y-162450000D03*
%TD*%
D39*
%TO.C,L1*%
X228270000Y-119750000D03*
X228270000Y-116450000D03*
%TD*%
D40*
%TO.C,J5*%
X220150000Y-162450000D03*
D41*
X218150000Y-162450000D03*
%TD*%
D14*
%TO.C,C3*%
X223650000Y-160650000D03*
X223650000Y-162550000D03*
%TD*%
D10*
%TO.C,C13*%
X224500000Y-143500000D03*
X222600000Y-143500000D03*
%TD*%
D27*
%TO.C,C19*%
X224870000Y-116700000D03*
X224870000Y-114800000D03*
%TD*%
D42*
%TO.C,R15*%
X176150000Y-136270000D03*
X176150000Y-134270000D03*
%TD*%
D24*
%TO.C,C8*%
X221310000Y-112950000D03*
X220350000Y-112950000D03*
%TD*%
D43*
%TO.C,JP2*%
X191825000Y-133050000D03*
D44*
X190375000Y-133050000D03*
%TD*%
D14*
%TO.C,C16*%
X216250000Y-156430000D03*
X216250000Y-158330000D03*
%TD*%
D13*
%TO.C,J8*%
X218550000Y-130150000D03*
D45*
X218550000Y-128880000D03*
X218550000Y-127610000D03*
X218550000Y-126340000D03*
%TD*%
D46*
%TO.C,R2*%
X192000000Y-129050000D03*
X190000000Y-129050000D03*
%TD*%
D33*
%TO.C,R16*%
X216760000Y-155130000D03*
X215740000Y-155130000D03*
%TD*%
D13*
%TO.C,TP2*%
X223750000Y-153250000D03*
%TD*%
%TO.C,J6*%
X176350000Y-143350000D03*
D45*
X176350000Y-142080000D03*
X176350000Y-140810000D03*
X176350000Y-139540000D03*
%TD*%
D33*
%TO.C,R19*%
X186560000Y-120350000D03*
X185540000Y-120350000D03*
%TD*%
D22*
%TO.C,H4*%
X189980000Y-149880000D03*
%TD*%
D32*
%TO.C,J1*%
X178150000Y-118700000D03*
X178150000Y-122200000D03*
%TD*%
D28*
%TO.C,R7*%
X231150000Y-144540000D03*
X231150000Y-145560000D03*
%TD*%
D47*
%TO.C,Q1*%
X187450000Y-137770000D03*
X187450000Y-138420000D03*
X187450000Y-139070000D03*
X189350000Y-139070000D03*
X189350000Y-138420000D03*
X189350000Y-137770000D03*
%TD*%
D29*
%TO.C,D2*%
X231350000Y-160975000D03*
X231350000Y-162550000D03*
%TD*%
D27*
%TO.C,C18*%
X220750000Y-109350000D03*
X220750000Y-107450000D03*
%TD*%
D48*
%TO.C,IC1*%
X212250000Y-156690000D03*
X212250000Y-155420000D03*
X212250000Y-154150000D03*
X212250000Y-152880000D03*
X212250000Y-151610000D03*
X212250000Y-150340000D03*
X212250000Y-149070000D03*
X212250000Y-147800000D03*
X212250000Y-146530000D03*
X212250000Y-145260000D03*
X212250000Y-143990000D03*
X212250000Y-142720000D03*
X212250000Y-141450000D03*
X212250000Y-140180000D03*
D49*
X209465000Y-139180000D03*
X208195000Y-139180000D03*
X206925000Y-139180000D03*
X205655000Y-139180000D03*
X204385000Y-139180000D03*
X203115000Y-139180000D03*
X201845000Y-139180000D03*
X200575000Y-139180000D03*
X199305000Y-139180000D03*
X198035000Y-139180000D03*
D48*
X195250000Y-140180000D03*
X195250000Y-141450000D03*
X195250000Y-142720000D03*
X195250000Y-143990000D03*
X195250000Y-145260000D03*
X195250000Y-146530000D03*
X195250000Y-147800000D03*
X195250000Y-149070000D03*
X195250000Y-150340000D03*
X195250000Y-151610000D03*
X195250000Y-152880000D03*
X195250000Y-154150000D03*
X195250000Y-155420000D03*
X195250000Y-156690000D03*
D50*
X206585000Y-151025000D03*
X204750000Y-151025000D03*
X202915000Y-151025000D03*
X206585000Y-149190000D03*
X204750000Y-149190000D03*
X202915000Y-149190000D03*
X206585000Y-147355000D03*
X204750000Y-147355000D03*
X202915000Y-147355000D03*
%TD*%
D51*
%TO.C,JP5*%
X223050000Y-155325000D03*
D52*
X223050000Y-156775000D03*
%TD*%
D53*
%TO.C,D3*%
X228320000Y-122850000D03*
X224020000Y-122850000D03*
%TD*%
D33*
%TO.C,R17*%
X232060000Y-138062500D03*
X231040000Y-138062500D03*
%TD*%
D51*
%TO.C,JP4*%
X220450000Y-155325000D03*
D52*
X220450000Y-156775000D03*
%TD*%
D10*
%TO.C,C24*%
X184050000Y-133170000D03*
X182150000Y-133170000D03*
%TD*%
D42*
%TO.C,R1*%
X195200000Y-122400000D03*
X195200000Y-120400000D03*
%TD*%
D28*
%TO.C,R9*%
X231170000Y-115940000D03*
X231170000Y-116960000D03*
%TD*%
D54*
%TO.C,IC6*%
X222838000Y-109145000D03*
X222838000Y-110415000D03*
X222838000Y-111685000D03*
X222838000Y-112955000D03*
X228262000Y-112955000D03*
X228262000Y-111685000D03*
X228262000Y-110415000D03*
X228262000Y-109145000D03*
%TD*%
D55*
%TO.C,IC3*%
X225845000Y-162562000D03*
X227115000Y-162562000D03*
X228385000Y-162562000D03*
X229655000Y-162562000D03*
X229655000Y-157138000D03*
X228385000Y-157138000D03*
X227115000Y-157138000D03*
X225845000Y-157138000D03*
D56*
X227750000Y-159850000D03*
%TD*%
D43*
%TO.C,JP6*%
X220775000Y-116700000D03*
D44*
X219325000Y-116700000D03*
%TD*%
D28*
%TO.C,R11*%
X221250000Y-110630000D03*
X221250000Y-111650000D03*
%TD*%
D42*
%TO.C,R14*%
X178150000Y-136270000D03*
X178150000Y-134270000D03*
%TD*%
D23*
%TO.C,JP7*%
X228300000Y-134850000D03*
X229600000Y-134850000D03*
%TD*%
D30*
%TO.C,R3*%
X227150000Y-155560000D03*
X227150000Y-154540000D03*
%TD*%
D57*
%TO.C,D6*%
X222775000Y-148550000D03*
X224350000Y-148550000D03*
%TD*%
D58*
%TO.C,S2*%
X190350000Y-163200000D03*
X190350000Y-155800000D03*
%TD*%
D13*
%TO.C,TP5*%
X191100000Y-137720000D03*
%TD*%
D32*
%TO.C,J2*%
X178150000Y-109600000D03*
X178150000Y-113100000D03*
%TD*%
D43*
%TO.C,JP3*%
X195325000Y-135050000D03*
D44*
X193875000Y-135050000D03*
%TD*%
D12*
%TO.C,C4*%
X175750000Y-161470000D03*
X175750000Y-162430000D03*
%TD*%
D59*
%TO.C,U4*%
X180475000Y-135025000D03*
X180475000Y-136295000D03*
X180475000Y-137565000D03*
X180475000Y-138835000D03*
X180475000Y-140105000D03*
X180475000Y-141375000D03*
X180475000Y-142645000D03*
X180475000Y-143915000D03*
X185425000Y-143915000D03*
X185425000Y-142645000D03*
X185425000Y-141375000D03*
X185425000Y-140105000D03*
X185425000Y-138835000D03*
X185425000Y-137565000D03*
X185425000Y-136295000D03*
X185425000Y-135025000D03*
%TD*%
D29*
%TO.C,D1*%
X225750000Y-153775000D03*
X225750000Y-155350000D03*
%TD*%
D33*
%TO.C,R5*%
X228270000Y-164150000D03*
X227250000Y-164150000D03*
%TD*%
D60*
%TO.C,U3*%
X185800000Y-146487500D03*
D61*
X185875000Y-145950000D03*
D60*
X185800000Y-145412500D03*
X184100000Y-145412500D03*
D61*
X184025000Y-145950000D03*
D60*
X184100000Y-146487500D03*
%TD*%
D62*
%TO.C,C12*%
X215770000Y-154130000D03*
X216730000Y-154130000D03*
%TD*%
%TO.C,C9*%
X231750000Y-150850000D03*
X232710000Y-150850000D03*
%TD*%
D63*
%TO.C,U1*%
X197600000Y-121050000D03*
X197600000Y-123050000D03*
X197600000Y-125050000D03*
X197600000Y-127050000D03*
X197600000Y-129050000D03*
X197600000Y-131050000D03*
X197600000Y-133050000D03*
X197600000Y-135050000D03*
X213600000Y-135050000D03*
X213600000Y-133050000D03*
X213600000Y-131050000D03*
X213600000Y-129050000D03*
X213600000Y-127050000D03*
X213600000Y-125050000D03*
X213600000Y-123050000D03*
X213600000Y-121050000D03*
%TD*%
D43*
%TO.C,JP1*%
X195325000Y-131050000D03*
D44*
X193875000Y-131050000D03*
%TD*%
D62*
%TO.C,C10*%
X222850000Y-107750000D03*
X223810000Y-107750000D03*
%TD*%
M02*
