M48
; DRILL file {KiCad (6.0.0)} date Fri Jun 10 16:52:30 2022
; FORMAT={-:-/ absolute / metric / decimal}
; #@! TF.CreationDate,2022-06-10T16:52:30+01:00
; #@! TF.GenerationSoftware,Kicad,Pcbnew,(6.0.0)
; #@! TF.FileFunction,Plated,1,4,PTH
FMAT,2
METRIC
; #@! TA.AperFunction,Plated,PTH,ViaDrill
T1C0.250
; #@! TA.AperFunction,Plated,PTH,ViaDrill
T2C0.300
; #@! TA.AperFunction,Plated,PTH,ViaDrill
T3C0.400
; #@! TA.AperFunction,Plated,PTH,ComponentDrill
T4C0.400
; #@! TA.AperFunction,Plated,PTH,ComponentDrill
T5C0.650
; #@! TA.AperFunction,Plated,PTH,ComponentDrill
T6C0.950
; #@! TA.AperFunction,Plated,PTH,ComponentDrill
T7C1.000
; #@! TA.AperFunction,Plated,PTH,ComponentDrill
T8C1.300
%
G90
G05
T1
X176.05Y-158.55
X176.15Y-133.05
X177.75Y-138.75
X178.15Y-133.05
X178.472Y-151.572
X178.5Y-152.25
X182.386Y-139.114
X182.678Y-140.05
X183.153Y-139.147
X184.55Y-121.25
X185.65Y-121.45
X186.55Y-145.95
X188.05Y-140.25
X188.55Y-125.35
X188.75Y-140.25
X189.107Y-125.016
X189.35Y-153.65
X189.6Y-137.22
X189.85Y-124.95
X190.35Y-131.45
X191.65Y-151.65
X191.65Y-152.85
X192.45Y-130.95
X192.55Y-135.05
X192.62Y-140.18
X193.724Y-150.35
X197.05Y-155.4
X198.35Y-146.45
X198.35Y-147.15
X198.35Y-147.85
X198.736Y-152.336
X199.35Y-127.05
X199.85Y-157.099
X201.65Y-140.85
X201.65Y-141.5
X201.65Y-142.149
X204.514Y-136.914
X208.075Y-129.45
X208.55Y-135.85
X208.94Y-136.37
X209.05Y-128.45
X209.55Y-136.85
X210.35Y-129.05
X212.05Y-129.05
X213.85Y-142.45
X214.15Y-143.85
X214.35Y-153.25
X214.45Y-139.15
X214.85Y-145.15
X215.55Y-131.05
X215.55Y-133.05
X218.85Y-155.95
X219.3Y-111.8
X219.4Y-126.0
X220.45Y-154.15
X220.961Y-153.749
X221.3Y-112.3
X221.3Y-113.3
X221.3Y-114.3
X221.3Y-115.3
X221.3Y-116.3
X221.3Y-117.3
X221.3Y-118.3
X222.3Y-112.3
X222.3Y-113.3
X222.3Y-114.3
X222.3Y-115.3
X222.3Y-116.3
X222.3Y-117.3
X222.3Y-118.3
X222.3Y-119.6
X222.3Y-120.6
X222.3Y-121.6
X222.3Y-122.6
X222.3Y-123.6
X223.3Y-119.6
X223.3Y-120.6
X223.3Y-121.6
X223.3Y-122.6
X223.3Y-123.6
X223.55Y-137.85
X224.4Y-156.95
X225.8Y-120.0
X226.5Y-113.0
X227.4Y-114.7
X227.4Y-115.7
X227.4Y-116.7
X228.4Y-114.7
X228.4Y-115.7
X228.4Y-116.7
X228.45Y-153.55
X229.4Y-114.7
X229.4Y-115.7
X229.4Y-116.7
X230.4Y-114.7
X230.4Y-115.7
X230.4Y-116.7
X231.35Y-159.85
X231.4Y-114.7
X231.4Y-115.7
X231.4Y-116.7
X232.5Y-113.7
X232.5Y-114.7
X232.5Y-115.7
X232.5Y-116.7
X232.5Y-117.7
T2
X178.55Y-144.85
X178.65Y-138.089
X183.45Y-117.05
X183.55Y-121.25
X184.05Y-132.02
X186.55Y-121.45
X188.05Y-134.99
X193.7Y-125.1
X217.75Y-155.35
X231.95Y-136.25
T3
X176.95Y-161.45
X177.85Y-139.75
X180.45Y-133.15
X180.8Y-155.05
X182.2Y-150.55
X183.45Y-114.65
X184.95Y-145.95
X185.65Y-153.85
X187.55Y-162.95
X188.05Y-135.95
X192.45Y-155.45
X193.0Y-124.2
X201.55Y-149.25
X201.55Y-150.95
X204.85Y-146.05
X206.55Y-146.05
X206.698Y-152.55
X207.95Y-150.95
X208.05Y-147.35
X208.05Y-149.15
X211.55Y-121.05
X213.45Y-136.95
X215.582Y-129.698
X217.2Y-133.2
X217.65Y-154.15
X217.75Y-158.35
X223.05Y-152.15
X224.95Y-147.05
X225.1Y-121.4
X225.15Y-145.25
X228.7Y-123.1
X229.2Y-109.7
X229.25Y-150.15
X229.25Y-164.15
X229.75Y-152.825
X230.05Y-138.062
X230.25Y-132.95
X231.65Y-156.45
X232.25Y-144.55
T4
X196.25Y-107.25
X198.25Y-107.25
X198.25Y-112.25
X200.25Y-107.25
X200.25Y-112.25
X202.25Y-107.25
X202.25Y-112.25
X204.25Y-107.25
X204.25Y-112.25
X206.25Y-107.25
X206.25Y-112.25
X208.25Y-107.25
X208.25Y-112.25
X210.25Y-107.25
X210.25Y-112.25
X212.25Y-107.25
X212.25Y-112.25
X214.25Y-107.25
X214.25Y-112.25
T5
X176.35Y-139.54
X176.35Y-140.81
X176.35Y-142.08
X176.35Y-143.35
T6
X218.15Y-162.45
X220.15Y-162.45
T7
X178.15Y-109.6
X178.15Y-113.1
X178.15Y-118.7
X178.15Y-122.2
X185.5Y-109.95
X189.0Y-109.95
T8
X177.025Y-148.55
X177.025Y-155.15
T0
M30
