%TF.GenerationSoftware,KiCad,Pcbnew,(6.0.0)*%
%TF.CreationDate,2022-06-10T16:52:28+01:00*%
%TF.ProjectId,flora,666c6f72-612e-46b6-9963-61645f706362,B*%
%TF.SameCoordinates,Original*%
%TF.FileFunction,Paste,Top*%
%TF.FilePolarity,Positive*%
%FSLAX46Y46*%
G04 Gerber Fmt 4.6, Leading zero omitted, Abs format (unit mm)*
G04 Created by KiCad (PCBNEW (6.0.0)) date 2022-06-10 16:52:28*
%MOMM*%
%LPD*%
G01*
G04 APERTURE LIST*
G04 Aperture macros list*
%AMRoundRect*
0 Rectangle with rounded corners*
0 $1 Rounding radius*
0 $2 $3 $4 $5 $6 $7 $8 $9 X,Y pos of 4 corners*
0 Add a 4 corners polygon primitive as box body*
4,1,4,$2,$3,$4,$5,$6,$7,$8,$9,$2,$3,0*
0 Add four circle primitives for the rounded corners*
1,1,$1+$1,$2,$3*
1,1,$1+$1,$4,$5*
1,1,$1+$1,$6,$7*
1,1,$1+$1,$8,$9*
0 Add four rect primitives between the rounded corners*
20,1,$1+$1,$2,$3,$4,$5,0*
20,1,$1+$1,$4,$5,$6,$7,0*
20,1,$1+$1,$6,$7,$8,$9,0*
20,1,$1+$1,$8,$9,$2,$3,0*%
G04 Aperture macros list end*
%ADD10RoundRect,0.250000X0.250000X0.475000X-0.250000X0.475000X-0.250000X-0.475000X0.250000X-0.475000X0*%
%ADD11RoundRect,0.135000X-0.135000X-0.185000X0.135000X-0.185000X0.135000X0.185000X-0.135000X0.185000X0*%
%ADD12RoundRect,0.140000X-0.170000X0.140000X-0.170000X-0.140000X0.170000X-0.140000X0.170000X0.140000X0*%
%ADD13R,0.750000X1.200000*%
%ADD14R,1.350000X0.400000*%
%ADD15R,1.400000X1.600000*%
%ADD16R,1.600000X1.900000*%
%ADD17RoundRect,0.250000X-0.250000X-0.475000X0.250000X-0.475000X0.250000X0.475000X-0.250000X0.475000X0*%
%ADD18RoundRect,0.140000X0.170000X-0.140000X0.170000X0.140000X-0.170000X0.140000X-0.170000X-0.140000X0*%
%ADD19RoundRect,0.140000X0.140000X0.170000X-0.140000X0.170000X-0.140000X-0.170000X0.140000X-0.170000X0*%
%ADD20RoundRect,0.250000X0.475000X-0.250000X0.475000X0.250000X-0.475000X0.250000X-0.475000X-0.250000X0*%
%ADD21RoundRect,0.135000X-0.185000X0.135000X-0.185000X-0.135000X0.185000X-0.135000X0.185000X0.135000X0*%
%ADD22RoundRect,0.218750X-0.256250X0.218750X-0.256250X-0.218750X0.256250X-0.218750X0.256250X0.218750X0*%
%ADD23RoundRect,0.135000X0.135000X0.185000X-0.135000X0.185000X-0.135000X-0.185000X0.135000X-0.185000X0*%
%ADD24RoundRect,0.135000X0.185000X-0.135000X0.185000X0.135000X-0.185000X0.135000X-0.185000X-0.135000X0*%
%ADD25R,0.450000X1.475000*%
%ADD26R,0.600000X1.200000*%
%ADD27R,0.850000X0.450000*%
%ADD28R,1.500000X2.400000*%
%ADD29RoundRect,0.250000X-0.475000X0.250000X-0.475000X-0.250000X0.475000X-0.250000X0.475000X0.250000X0*%
%ADD30R,1.200000X1.000000*%
%ADD31R,1.900000X3.400000*%
%ADD32RoundRect,0.250000X0.450000X-0.350000X0.450000X0.350000X-0.450000X0.350000X-0.450000X-0.350000X0*%
%ADD33RoundRect,0.140000X-0.140000X-0.170000X0.140000X-0.170000X0.140000X0.170000X-0.140000X0.170000X0*%
%ADD34RoundRect,0.250000X0.350000X0.450000X-0.350000X0.450000X-0.350000X-0.450000X0.350000X-0.450000X0*%
%ADD35R,1.500000X2.000000*%
%ADD36R,3.800000X2.000000*%
%ADD37RoundRect,0.250000X-0.550000X1.500000X-0.550000X-1.500000X0.550000X-1.500000X0.550000X1.500000X0*%
%ADD38R,0.650000X0.400000*%
%ADD39R,2.000000X0.900000*%
%ADD40R,0.900000X2.000000*%
%ADD41R,1.330000X1.330000*%
%ADD42R,1.550000X2.350000*%
%ADD43R,0.700000X1.525000*%
%ADD44R,3.402000X2.513000*%
%ADD45RoundRect,0.218750X-0.218750X-0.256250X0.218750X-0.256250X0.218750X0.256250X-0.218750X0.256250X0*%
%ADD46R,1.000000X1.200000*%
%ADD47RoundRect,0.150000X-0.825000X-0.150000X0.825000X-0.150000X0.825000X0.150000X-0.825000X0.150000X0*%
%ADD48R,0.500000X0.375000*%
%ADD49R,0.650000X0.300000*%
%ADD50R,2.000000X1.500000*%
G04 APERTURE END LIST*
D10*
%TO.C,C21*%
X185650000Y-155450000D03*
X183750000Y-155450000D03*
%TD*%
D11*
%TO.C,R18*%
X223052500Y-147050000D03*
X224072500Y-147050000D03*
%TD*%
D12*
%TO.C,C17*%
X217750000Y-156470000D03*
X217750000Y-157430000D03*
%TD*%
D10*
%TO.C,C14*%
X217750000Y-126000000D03*
X215850000Y-126000000D03*
%TD*%
D13*
%TO.C,D4*%
X184700000Y-153550000D03*
X184700000Y-150150000D03*
%TD*%
D14*
%TO.C,J4*%
X179700000Y-150550000D03*
X179700000Y-151200000D03*
X179700000Y-151850000D03*
X179700000Y-152500000D03*
X179700000Y-153150000D03*
D15*
X179475000Y-148650000D03*
D16*
X177025000Y-150650000D03*
X177025000Y-153050000D03*
D15*
X179475000Y-155050000D03*
%TD*%
D17*
%TO.C,C6*%
X229750000Y-155050000D03*
X231650000Y-155050000D03*
%TD*%
D18*
%TO.C,C7*%
X230100000Y-110380000D03*
X230100000Y-109420000D03*
%TD*%
D19*
%TO.C,C11*%
X191250000Y-153650000D03*
X190290000Y-153650000D03*
%TD*%
D20*
%TO.C,C1*%
X195200000Y-126000000D03*
X195200000Y-124100000D03*
%TD*%
D11*
%TO.C,R20*%
X183540000Y-120350000D03*
X184560000Y-120350000D03*
%TD*%
%TO.C,R10*%
X231190000Y-111400000D03*
X232210000Y-111400000D03*
%TD*%
D21*
%TO.C,R13*%
X178650000Y-142850000D03*
X178650000Y-143870000D03*
%TD*%
D12*
%TO.C,C23*%
X178730000Y-138850000D03*
X178730000Y-139810000D03*
%TD*%
D22*
%TO.C,D5*%
X231550000Y-139475000D03*
X231550000Y-141050000D03*
%TD*%
D21*
%TO.C,R12*%
X231200000Y-109390000D03*
X231200000Y-110410000D03*
%TD*%
D12*
%TO.C,C22*%
X187250000Y-135010000D03*
X187250000Y-135970000D03*
%TD*%
D23*
%TO.C,R6*%
X230200000Y-108400000D03*
X229180000Y-108400000D03*
%TD*%
D19*
%TO.C,C5*%
X230180000Y-111400000D03*
X229220000Y-111400000D03*
%TD*%
D24*
%TO.C,R4*%
X228450000Y-155560000D03*
X228450000Y-154540000D03*
%TD*%
D25*
%TO.C,IC4*%
X226475000Y-150788000D03*
X227125000Y-150788000D03*
X227775000Y-150788000D03*
X228425000Y-150788000D03*
X228425000Y-144912000D03*
X227775000Y-144912000D03*
X227125000Y-144912000D03*
X226475000Y-144912000D03*
%TD*%
D19*
%TO.C,C2*%
X193660000Y-126000000D03*
X192700000Y-126000000D03*
%TD*%
D20*
%TO.C,C15*%
X231850000Y-134850000D03*
X231850000Y-132950000D03*
%TD*%
D23*
%TO.C,R8*%
X230770000Y-150850000D03*
X229750000Y-150850000D03*
%TD*%
D26*
%TO.C,IC5*%
X232050000Y-146950000D03*
X231100000Y-146950000D03*
X230150000Y-146950000D03*
X230150000Y-149450000D03*
X231100000Y-149450000D03*
X232050000Y-149450000D03*
%TD*%
D27*
%TO.C,IC2*%
X187545000Y-117420000D03*
X187545000Y-116420000D03*
X187545000Y-115420000D03*
X184645000Y-115420000D03*
X184645000Y-116420000D03*
X184645000Y-117420000D03*
D28*
X186095000Y-116420000D03*
%TD*%
D29*
%TO.C,C20*%
X216900000Y-130050000D03*
X216900000Y-131950000D03*
%TD*%
D18*
%TO.C,C25*%
X183450000Y-116330000D03*
X183450000Y-115370000D03*
%TD*%
D30*
%TO.C,S1*%
X185300000Y-162450000D03*
X177900000Y-162450000D03*
%TD*%
D31*
%TO.C,L1*%
X227450000Y-109500000D03*
X224150000Y-109500000D03*
%TD*%
D29*
%TO.C,C3*%
X223650000Y-160650000D03*
X223650000Y-162550000D03*
%TD*%
D10*
%TO.C,C13*%
X224500000Y-143500000D03*
X222600000Y-143500000D03*
%TD*%
%TO.C,C19*%
X217750000Y-128100000D03*
X215850000Y-128100000D03*
%TD*%
D32*
%TO.C,R15*%
X176150000Y-136270000D03*
X176150000Y-134270000D03*
%TD*%
D33*
%TO.C,C8*%
X231320000Y-120000000D03*
X232280000Y-120000000D03*
%TD*%
D29*
%TO.C,C16*%
X216250000Y-156430000D03*
X216250000Y-158330000D03*
%TD*%
D34*
%TO.C,R2*%
X192000000Y-129050000D03*
X190000000Y-129050000D03*
%TD*%
D23*
%TO.C,R16*%
X216760000Y-155130000D03*
X215740000Y-155130000D03*
%TD*%
D35*
%TO.C,IC7*%
X221200000Y-140950000D03*
X223500000Y-140950000D03*
D36*
X223500000Y-134650000D03*
D35*
X225800000Y-140950000D03*
%TD*%
D37*
%TO.C,C26*%
X219300000Y-109500000D03*
X219300000Y-115100000D03*
%TD*%
D23*
%TO.C,R19*%
X186560000Y-120350000D03*
X185540000Y-120350000D03*
%TD*%
D21*
%TO.C,R7*%
X231150000Y-144540000D03*
X231150000Y-145560000D03*
%TD*%
D38*
%TO.C,Q1*%
X187450000Y-137770000D03*
X187450000Y-138420000D03*
X187450000Y-139070000D03*
X189350000Y-139070000D03*
X189350000Y-138420000D03*
X189350000Y-137770000D03*
%TD*%
D22*
%TO.C,D2*%
X231350000Y-160975000D03*
X231350000Y-162550000D03*
%TD*%
D10*
%TO.C,C18*%
X228750000Y-121600000D03*
X226850000Y-121600000D03*
%TD*%
D39*
%TO.C,IC1*%
X212250000Y-156690000D03*
X212250000Y-155420000D03*
X212250000Y-154150000D03*
X212250000Y-152880000D03*
X212250000Y-151610000D03*
X212250000Y-150340000D03*
X212250000Y-149070000D03*
X212250000Y-147800000D03*
X212250000Y-146530000D03*
X212250000Y-145260000D03*
X212250000Y-143990000D03*
X212250000Y-142720000D03*
X212250000Y-141450000D03*
X212250000Y-140180000D03*
D40*
X209465000Y-139180000D03*
X208195000Y-139180000D03*
X206925000Y-139180000D03*
X205655000Y-139180000D03*
X204385000Y-139180000D03*
X203115000Y-139180000D03*
X201845000Y-139180000D03*
X200575000Y-139180000D03*
X199305000Y-139180000D03*
X198035000Y-139180000D03*
D39*
X195250000Y-140180000D03*
X195250000Y-141450000D03*
X195250000Y-142720000D03*
X195250000Y-143990000D03*
X195250000Y-145260000D03*
X195250000Y-146530000D03*
X195250000Y-147800000D03*
X195250000Y-149070000D03*
X195250000Y-150340000D03*
X195250000Y-151610000D03*
X195250000Y-152880000D03*
X195250000Y-154150000D03*
X195250000Y-155420000D03*
X195250000Y-156690000D03*
D41*
X206585000Y-151025000D03*
X204750000Y-151025000D03*
X202915000Y-151025000D03*
X206585000Y-149190000D03*
X204750000Y-149190000D03*
X202915000Y-149190000D03*
X206585000Y-147355000D03*
X204750000Y-147355000D03*
X202915000Y-147355000D03*
%TD*%
D42*
%TO.C,D3*%
X224800000Y-113350000D03*
X224800000Y-117650000D03*
%TD*%
D23*
%TO.C,R17*%
X232060000Y-138062500D03*
X231040000Y-138062500D03*
%TD*%
D10*
%TO.C,C24*%
X184050000Y-133170000D03*
X182150000Y-133170000D03*
%TD*%
D32*
%TO.C,R1*%
X195200000Y-122400000D03*
X195200000Y-120400000D03*
%TD*%
D21*
%TO.C,R9*%
X231200000Y-107390000D03*
X231200000Y-108410000D03*
%TD*%
D43*
%TO.C,IC6*%
X227495000Y-118412000D03*
X228765000Y-118412000D03*
X230035000Y-118412000D03*
X231305000Y-118412000D03*
X231305000Y-112988000D03*
X230035000Y-112988000D03*
X228765000Y-112988000D03*
X227495000Y-112988000D03*
%TD*%
%TO.C,IC3*%
X225845000Y-162562000D03*
X227115000Y-162562000D03*
X228385000Y-162562000D03*
X229655000Y-162562000D03*
X229655000Y-157138000D03*
X228385000Y-157138000D03*
X227115000Y-157138000D03*
X225845000Y-157138000D03*
D44*
X227750000Y-159850000D03*
%TD*%
D11*
%TO.C,R11*%
X228990000Y-120000000D03*
X230010000Y-120000000D03*
%TD*%
D32*
%TO.C,R14*%
X178150000Y-136270000D03*
X178150000Y-134270000D03*
%TD*%
D24*
%TO.C,R3*%
X227150000Y-155560000D03*
X227150000Y-154540000D03*
%TD*%
D45*
%TO.C,D6*%
X222775000Y-148550000D03*
X224350000Y-148550000D03*
%TD*%
D46*
%TO.C,S2*%
X190350000Y-163200000D03*
X190350000Y-155800000D03*
%TD*%
D12*
%TO.C,C4*%
X175750000Y-161470000D03*
X175750000Y-162430000D03*
%TD*%
D47*
%TO.C,U4*%
X180475000Y-135025000D03*
X180475000Y-136295000D03*
X180475000Y-137565000D03*
X180475000Y-138835000D03*
X180475000Y-140105000D03*
X180475000Y-141375000D03*
X180475000Y-142645000D03*
X180475000Y-143915000D03*
X185425000Y-143915000D03*
X185425000Y-142645000D03*
X185425000Y-141375000D03*
X185425000Y-140105000D03*
X185425000Y-138835000D03*
X185425000Y-137565000D03*
X185425000Y-136295000D03*
X185425000Y-135025000D03*
%TD*%
D22*
%TO.C,D1*%
X225750000Y-153775000D03*
X225750000Y-155350000D03*
%TD*%
D23*
%TO.C,R5*%
X228270000Y-164150000D03*
X227250000Y-164150000D03*
%TD*%
D48*
%TO.C,U3*%
X185800000Y-146487500D03*
D49*
X185875000Y-145950000D03*
D48*
X185800000Y-145412500D03*
X184100000Y-145412500D03*
D49*
X184025000Y-145950000D03*
D48*
X184100000Y-146487500D03*
%TD*%
D33*
%TO.C,C12*%
X215770000Y-154130000D03*
X216730000Y-154130000D03*
%TD*%
%TO.C,C9*%
X231750000Y-150850000D03*
X232710000Y-150850000D03*
%TD*%
D50*
%TO.C,U1*%
X197600000Y-121050000D03*
X197600000Y-123050000D03*
X197600000Y-125050000D03*
X197600000Y-127050000D03*
X197600000Y-129050000D03*
X197600000Y-131050000D03*
X197600000Y-133050000D03*
X197600000Y-135050000D03*
X213600000Y-135050000D03*
X213600000Y-133050000D03*
X213600000Y-131050000D03*
X213600000Y-129050000D03*
X213600000Y-127050000D03*
X213600000Y-125050000D03*
X213600000Y-123050000D03*
X213600000Y-121050000D03*
%TD*%
D19*
%TO.C,C10*%
X227460000Y-120000000D03*
X226500000Y-120000000D03*
%TD*%
M02*
